<svg width="26" height="33" viewBox="0 0 26 33" fill="none" xmlns="http://www.w3.org/2000/svg">
<path d="M2.53174 20.8223C2.53174 22.6416 3.45459 23.5469 5.2915 23.5469H14.4409C14.186 23.1074 13.9927 22.6328 13.8696 22.1318H5.15967C4.37744 22.1318 3.94678 21.7188 3.94678 20.9014V12.6133C3.94678 11.8047 4.37744 11.3828 5.15967 11.3828H17.4116C18.1938 11.3828 18.6333 11.8047 18.6333 12.6133V15.1094C18.8882 15.083 19.1167 15.0654 19.354 15.0654C19.5825 15.0654 19.8198 15.083 20.0483 15.1094V10.0908C20.0483 8.28027 19.1343 7.36621 17.2974 7.36621H5.2915C3.45459 7.36621 2.53174 8.27148 2.53174 10.0908V20.8223ZM9.57178 14.5381H10.0903C10.3979 14.5381 10.5034 14.4502 10.5034 14.1426V13.624C10.5034 13.3164 10.3979 13.2197 10.0903 13.2197H9.57178C9.26416 13.2197 9.15869 13.3164 9.15869 13.624V14.1426C9.15869 14.4502 9.26416 14.5381 9.57178 14.5381ZM12.4985 14.5381H13.0083C13.3159 14.5381 13.4214 14.4502 13.4214 14.1426V13.624C13.4214 13.3164 13.3159 13.2197 13.0083 13.2197H12.4985C12.1821 13.2197 12.0854 13.3164 12.0854 13.624V14.1426C12.0854 14.4502 12.1821 14.5381 12.4985 14.5381ZM15.4165 14.5381H15.9351C16.2427 14.5381 16.3394 14.4502 16.3394 14.1426V13.624C16.3394 13.3164 16.2427 13.2197 15.9351 13.2197H15.4165C15.1089 13.2197 15.0034 13.3164 15.0034 13.624V14.1426C15.0034 14.4502 15.1089 14.5381 15.4165 14.5381ZM6.65381 17.4121H7.17236C7.47998 17.4121 7.57666 17.3242 7.57666 17.0166V16.498C7.57666 16.1904 7.47998 16.1025 7.17236 16.1025H6.65381C6.34619 16.1025 6.24072 16.1904 6.24072 16.498V17.0166C6.24072 17.3242 6.34619 17.4121 6.65381 17.4121ZM9.57178 17.4121H10.0903C10.3979 17.4121 10.5034 17.3242 10.5034 17.0166V16.498C10.5034 16.1904 10.3979 16.1025 10.0903 16.1025H9.57178C9.26416 16.1025 9.15869 16.1904 9.15869 16.498V17.0166C9.15869 17.3242 9.26416 17.4121 9.57178 17.4121ZM12.4985 17.4121H13.0083C13.3159 17.4121 13.4214 17.3242 13.4214 17.0166V16.498C13.4214 16.1904 13.3159 16.1025 13.0083 16.1025H12.4985C12.1821 16.1025 12.0854 16.1904 12.0854 16.498V17.0166C12.0854 17.3242 12.1821 17.4121 12.4985 17.4121ZM19.354 25.1992C21.771 25.1992 23.8188 23.1777 23.8188 20.7344C23.8188 18.2822 21.7974 16.2695 19.354 16.2695C16.9019 16.2695 14.8892 18.291 14.8892 20.7344C14.8892 23.1953 16.9019 25.1992 19.354 25.1992ZM19.354 23.6348C19.0464 23.6348 18.7827 23.4238 18.7827 23.0898V21.2705H17.0952C16.8052 21.2705 16.5591 21.0244 16.5591 20.7344C16.5591 20.4443 16.8052 20.1895 17.0952 20.1895H18.7827V18.3701C18.7827 18.0449 19.0464 17.834 19.354 17.834C19.6616 17.834 19.9253 18.0449 19.9253 18.3701V20.1895H21.6128C21.9028 20.1895 22.1489 20.4443 22.1489 20.7344C22.1489 21.0244 21.9028 21.2705 21.6128 21.2705H19.9253V23.0898C19.9253 23.4238 19.6616 23.6348 19.354 23.6348ZM6.65381 20.2949H7.17236C7.47998 20.2949 7.57666 20.1982 7.57666 19.8906V19.3721C7.57666 19.0645 7.47998 18.9766 7.17236 18.9766H6.65381C6.34619 18.9766 6.24072 19.0645 6.24072 19.3721V19.8906C6.24072 20.1982 6.34619 20.2949 6.65381 20.2949ZM9.57178 20.2949H10.0903C10.3979 20.2949 10.5034 20.1982 10.5034 19.8906V19.3721C10.5034 19.0645 10.3979 18.9766 10.0903 18.9766H9.57178C9.26416 18.9766 9.15869 19.0645 9.15869 19.3721V19.8906C9.15869 20.1982 9.26416 20.2949 9.57178 20.2949ZM12.4985 20.2949H13.0083C13.3159 20.2949 13.4214 20.1982 13.4214 19.8906V19.3721C13.4214 19.0645 13.3159 18.9766 13.0083 18.9766H12.4985C12.1821 18.9766 12.0854 19.0645 12.0854 19.3721V19.8906C12.0854 20.1982 12.1821 20.2949 12.4985 20.2949Z" fill="#0000EE"/>
</svg>
