<svg width="56" height="63" viewBox="0 0 56 63" fill="none" xmlns="http://www.w3.org/2000/svg">
<path fill-rule="evenodd" clip-rule="evenodd" d="M51.9613 22.1786C51.9613 12.2654 43.2856 3.98077 32.2665 3.98077V0C45.1927 0 55.9286 9.79244 55.9286 22.1786C55.9286 34.5647 45.1927 44.3571 32.2665 44.3571C26.6301 44.3571 21.436 42.5079 17.3572 39.403L19.755 36.2316C23.1475 38.814 27.5004 40.3764 32.2665 40.3764C43.2856 40.3764 51.9613 32.0917 51.9613 22.1786Z" fill="white"/>
<path d="M27.0001 21.2143C27.0001 22.9895 25.561 24.4286 23.7858 24.4286C22.0106 24.4286 20.5715 22.9895 20.5715 21.2143C20.5715 19.4391 22.0106 18 23.7858 18C25.561 18 27.0001 19.4391 27.0001 21.2143Z" fill="white"/>
<path d="M43.7142 21.2143C43.7142 22.9895 42.2751 24.4286 40.4999 24.4286C38.7247 24.4286 37.2856 22.9895 37.2856 21.2143C37.2856 19.4391 38.7247 18 40.4999 18C42.2751 18 43.7142 19.4391 43.7142 21.2143Z" fill="white"/>
<path fill-rule="evenodd" clip-rule="evenodd" d="M31.6791 3.97297C16.3899 3.97297 3.99557 16.2972 3.99557 31.5C3.99557 46.7028 16.3899 59.027 31.6791 59.027C39.8753 59.027 47.2374 55.4879 52.3092 49.8563L55.2857 52.5067C49.4881 58.9443 41.0586 63 31.6791 63C14.1832 63 0 48.897 0 31.5C0 14.103 14.1832 0 31.6791 0C34.7416 0 37.7058 1.43267 40.5117 2.24115L39.3996 5.05714C36.9515 4.35173 34.3615 3.97297 31.6791 3.97297Z" fill="white"/>
</svg>
