<svg width="335" height="435" viewBox="0 0 335 435" fill="none" xmlns="http://www.w3.org/2000/svg">
<g filter="url(#filter0_i_3849_17159)">
<path d="M296.781 198.276C302.346 333.593 293.551 381 168.633 381C43.7155 381 31.4072 335.986 38.6298 199.472C45.8523 62.9589 70.2343 26 167.706 26C265.177 26 291.216 62.9589 296.781 198.276Z" fill="#FCFCFC"/>
</g>
<path d="M102.677 268.389H100.245L100.001 268.999H100.245C100.486 268.999 100.657 269.046 100.758 269.141C100.862 269.232 100.914 269.352 100.914 269.502C100.914 269.648 100.862 269.769 100.758 269.863C100.657 269.954 100.486 270 100.245 270H98.8975C98.6566 270 98.4857 269.954 98.3848 269.863C98.2806 269.769 98.2285 269.647 98.2285 269.497C98.2285 269.347 98.2822 269.225 98.3896 269.131C98.4971 269.036 98.6745 268.993 98.9219 268.999L100.494 265.083H99.8398C99.599 265.083 99.4264 265.037 99.3223 264.946C99.2214 264.852 99.1709 264.73 99.1709 264.58C99.1709 264.43 99.2214 264.31 99.3223 264.219C99.4264 264.124 99.599 264.077 99.8398 264.077L102.003 264.082L103.995 268.999C104.229 268.999 104.384 269.025 104.459 269.077C104.609 269.185 104.684 269.326 104.684 269.502C104.684 269.648 104.633 269.769 104.532 269.863C104.431 269.954 104.26 270 104.02 270H102.672C102.431 270 102.258 269.954 102.154 269.863C102.053 269.769 102.003 269.647 102.003 269.497C102.003 269.351 102.053 269.232 102.154 269.141C102.258 269.046 102.431 268.999 102.672 268.999H102.916L102.677 268.389ZM102.262 267.388L101.456 265.405L100.646 267.388H102.262ZM110.529 264.336C110.591 264.251 110.658 264.188 110.729 264.146C110.804 264.103 110.884 264.082 110.969 264.082C111.115 264.082 111.234 264.132 111.325 264.233C111.42 264.334 111.467 264.505 111.467 264.746V265.596C111.467 265.837 111.42 266.009 111.325 266.113C111.234 266.214 111.115 266.265 110.969 266.265C110.835 266.265 110.728 266.227 110.646 266.152C110.565 266.077 110.505 265.938 110.466 265.732C110.443 265.596 110.397 265.49 110.329 265.415C110.196 265.269 110.008 265.151 109.768 265.063C109.53 264.976 109.291 264.932 109.05 264.932C108.75 264.932 108.475 264.997 108.225 265.127C107.974 265.257 107.753 265.469 107.561 265.762C107.368 266.055 107.272 266.403 107.272 266.807V267.456C107.272 267.938 107.447 268.34 107.795 268.662C108.146 268.984 108.633 269.146 109.255 269.146C109.626 269.146 109.94 269.095 110.197 268.994C110.347 268.936 110.507 268.82 110.676 268.647C110.78 268.543 110.861 268.477 110.92 268.447C110.979 268.415 111.045 268.398 111.12 268.398C111.254 268.398 111.371 268.449 111.472 268.55C111.573 268.651 111.623 268.77 111.623 268.906C111.623 269.043 111.555 269.189 111.418 269.346C111.219 269.574 110.964 269.753 110.651 269.883C110.231 270.059 109.768 270.146 109.26 270.146C108.667 270.146 108.133 270.024 107.658 269.78C107.274 269.585 106.947 269.277 106.677 268.857C106.407 268.434 106.271 267.974 106.271 267.476V266.797C106.271 266.276 106.392 265.791 106.633 265.342C106.877 264.889 107.214 264.541 107.644 264.297C108.073 264.053 108.529 263.931 109.011 263.931C109.3 263.931 109.571 263.965 109.821 264.033C110.075 264.098 110.311 264.199 110.529 264.336ZM116.951 265.083V268.999H117.625C117.866 268.999 118.037 269.046 118.138 269.141C118.242 269.232 118.294 269.352 118.294 269.502C118.294 269.648 118.242 269.769 118.138 269.863C118.037 269.954 117.866 270 117.625 270H115.281C115.04 270 114.868 269.954 114.764 269.863C114.663 269.769 114.612 269.647 114.612 269.497C114.612 269.351 114.663 269.232 114.764 269.141C114.868 269.046 115.04 268.999 115.281 268.999H115.95V265.083H114.866V266.03C114.866 266.271 114.819 266.444 114.725 266.548C114.633 266.649 114.513 266.699 114.363 266.699C114.217 266.699 114.096 266.649 114.002 266.548C113.911 266.444 113.865 266.271 113.865 266.03V264.077L119.051 264.082V266.03C119.051 266.271 119.004 266.444 118.909 266.548C118.818 266.649 118.698 266.699 118.548 266.699C118.401 266.699 118.281 266.649 118.187 266.548C118.095 266.444 118.05 266.271 118.05 266.03V265.083H116.951ZM124.472 265.083V268.999H125.482C125.723 268.999 125.894 269.046 125.995 269.141C126.099 269.232 126.151 269.352 126.151 269.502C126.151 269.648 126.099 269.769 125.995 269.863C125.894 269.954 125.723 270 125.482 270H122.46C122.219 270 122.047 269.954 121.942 269.863C121.841 269.769 121.791 269.647 121.791 269.497C121.791 269.351 121.841 269.232 121.942 269.141C122.047 269.046 122.219 268.999 122.46 268.999H123.471V265.083H122.46C122.219 265.083 122.047 265.037 121.942 264.946C121.841 264.852 121.791 264.73 121.791 264.58C121.791 264.43 121.841 264.31 121.942 264.219C122.047 264.124 122.219 264.077 122.46 264.077L125.482 264.082C125.723 264.082 125.894 264.128 125.995 264.219C126.099 264.31 126.151 264.43 126.151 264.58C126.151 264.73 126.099 264.852 125.995 264.946C125.894 265.037 125.723 265.083 125.482 265.083H124.472ZM131.475 268.54L132.925 265.083H132.695C132.454 265.083 132.282 265.037 132.178 264.946C132.077 264.852 132.026 264.73 132.026 264.58C132.026 264.43 132.077 264.31 132.178 264.219C132.282 264.124 132.454 264.077 132.695 264.077L134.038 264.082C134.279 264.082 134.45 264.128 134.551 264.219C134.655 264.31 134.707 264.43 134.707 264.58C134.707 264.759 134.629 264.901 134.473 265.005C134.398 265.057 134.245 265.083 134.014 265.083L131.958 270H130.996L128.945 265.083C128.711 265.083 128.556 265.057 128.481 265.005C128.325 264.904 128.247 264.762 128.247 264.58C128.247 264.43 128.299 264.31 128.403 264.219C128.504 264.124 128.675 264.077 128.916 264.077L130.269 264.082C130.506 264.082 130.675 264.128 130.776 264.219C130.881 264.31 130.933 264.43 130.933 264.58C130.933 264.73 130.882 264.852 130.781 264.946C130.68 265.037 130.509 265.083 130.269 265.083H130.034L131.475 268.54ZM139.483 265.083V268.999H140.494C140.735 268.999 140.906 269.046 141.007 269.141C141.111 269.232 141.163 269.352 141.163 269.502C141.163 269.648 141.111 269.769 141.007 269.863C140.906 269.954 140.735 270 140.494 270H137.472C137.231 270 137.058 269.954 136.954 269.863C136.853 269.769 136.803 269.647 136.803 269.497C136.803 269.351 136.853 269.232 136.954 269.141C137.058 269.046 137.231 268.999 137.472 268.999H138.482V265.083H137.472C137.231 265.083 137.058 265.037 136.954 264.946C136.853 264.852 136.803 264.73 136.803 264.58C136.803 264.43 136.853 264.31 136.954 264.219C137.058 264.124 137.231 264.077 137.472 264.077L140.494 264.082C140.735 264.082 140.906 264.128 141.007 264.219C141.111 264.31 141.163 264.43 141.163 264.58C141.163 264.73 141.111 264.852 141.007 264.946C140.906 265.037 140.735 265.083 140.494 265.083H139.483ZM146.975 265.083V268.999H147.648C147.889 268.999 148.06 269.046 148.161 269.141C148.265 269.232 148.317 269.352 148.317 269.502C148.317 269.648 148.265 269.769 148.161 269.863C148.06 269.954 147.889 270 147.648 270H145.305C145.064 270 144.891 269.954 144.787 269.863C144.686 269.769 144.636 269.647 144.636 269.497C144.636 269.351 144.686 269.232 144.787 269.141C144.891 269.046 145.064 268.999 145.305 268.999H145.974V265.083H144.89V266.03C144.89 266.271 144.842 266.444 144.748 266.548C144.657 266.649 144.536 266.699 144.387 266.699C144.24 266.699 144.12 266.649 144.025 266.548C143.934 266.444 143.889 266.271 143.889 266.03V264.077L149.074 264.082V266.03C149.074 266.271 149.027 266.444 148.933 266.548C148.841 266.649 148.721 266.699 148.571 266.699C148.425 266.699 148.304 266.649 148.21 266.548C148.119 266.444 148.073 266.271 148.073 266.03V265.083H146.975ZM154.5 267.515V268.999H155.174C155.415 268.999 155.586 269.046 155.687 269.141C155.791 269.232 155.843 269.352 155.843 269.502C155.843 269.648 155.791 269.769 155.687 269.863C155.586 269.954 155.415 270 155.174 270H152.825C152.588 270 152.417 269.954 152.312 269.863C152.212 269.769 152.161 269.647 152.161 269.497C152.161 269.351 152.212 269.232 152.312 269.141C152.417 269.046 152.588 268.999 152.825 268.999H153.499V267.515L151.844 265.083C151.622 265.083 151.46 265.036 151.355 264.941C151.255 264.847 151.204 264.727 151.204 264.58C151.204 264.43 151.255 264.31 151.355 264.219C151.46 264.124 151.632 264.077 151.873 264.077L152.781 264.082C153.022 264.082 153.193 264.128 153.294 264.219C153.398 264.31 153.45 264.43 153.45 264.58C153.45 264.805 153.318 264.972 153.055 265.083L154.002 266.479L154.93 265.083C154.783 265.028 154.679 264.958 154.617 264.873C154.555 264.788 154.524 264.691 154.524 264.58C154.524 264.43 154.575 264.31 154.676 264.219C154.78 264.128 154.952 264.08 155.193 264.077L156.136 264.082C156.377 264.082 156.548 264.128 156.648 264.219C156.753 264.31 156.805 264.43 156.805 264.58C156.805 264.73 156.753 264.852 156.648 264.946C156.544 265.037 156.375 265.083 156.141 265.083L154.5 267.515ZM80.5059 289.336C80.5677 289.251 80.6344 289.188 80.7061 289.146C80.7809 289.103 80.8607 289.082 80.9453 289.082C81.0918 289.082 81.2106 289.132 81.3018 289.233C81.3962 289.334 81.4434 289.505 81.4434 289.746V290.596C81.4434 290.837 81.3962 291.009 81.3018 291.113C81.2106 291.214 81.0918 291.265 80.9453 291.265C80.8118 291.265 80.7044 291.227 80.623 291.152C80.5417 291.077 80.4814 290.938 80.4424 290.732C80.4196 290.596 80.374 290.49 80.3057 290.415C80.1722 290.269 79.985 290.151 79.7441 290.063C79.5065 289.976 79.2673 289.932 79.0264 289.932C78.7269 289.932 78.4518 289.997 78.2012 290.127C77.9505 290.257 77.7292 290.469 77.5371 290.762C77.3451 291.055 77.249 291.403 77.249 291.807V292.456C77.249 292.938 77.4232 293.34 77.7715 293.662C78.123 293.984 78.6097 294.146 79.2314 294.146C79.6025 294.146 79.9167 294.095 80.1738 293.994C80.3236 293.936 80.4831 293.82 80.6523 293.647C80.7565 293.543 80.8379 293.477 80.8965 293.447C80.9551 293.415 81.0218 293.398 81.0967 293.398C81.2301 293.398 81.3473 293.449 81.4482 293.55C81.5492 293.651 81.5996 293.77 81.5996 293.906C81.5996 294.043 81.5312 294.189 81.3945 294.346C81.196 294.574 80.9404 294.753 80.6279 294.883C80.208 295.059 79.7441 295.146 79.2363 295.146C78.6439 295.146 78.11 295.024 77.6348 294.78C77.2507 294.585 76.9235 294.277 76.6533 293.857C76.3831 293.434 76.248 292.974 76.248 292.476V291.797C76.248 291.276 76.3685 290.791 76.6094 290.342C76.8535 289.889 77.1904 289.541 77.6201 289.297C78.0498 289.053 78.5055 288.931 78.9873 288.931C79.277 288.931 79.5472 288.965 79.7979 289.033C80.0518 289.098 80.2878 289.199 80.5059 289.336ZM89.252 292.041C89.252 292.93 88.9688 293.67 88.4023 294.263C87.8392 294.852 87.1865 295.146 86.4443 295.146C85.777 295.146 85.1748 294.901 84.6377 294.409C83.9736 293.8 83.6416 293.011 83.6416 292.041C83.6416 291.071 83.9736 290.28 84.6377 289.668C85.1748 289.176 85.777 288.931 86.4443 288.931C87.1865 288.931 87.8392 289.227 88.4023 289.819C88.9688 290.409 89.252 291.149 89.252 292.041ZM88.251 292.041C88.251 291.432 88.0671 290.929 87.6992 290.532C87.3314 290.132 86.9131 289.932 86.4443 289.932C85.9788 289.932 85.5622 290.132 85.1943 290.532C84.8265 290.933 84.6426 291.436 84.6426 292.041C84.6426 292.646 84.8265 293.149 85.1943 293.55C85.5622 293.947 85.9788 294.146 86.4443 294.146C86.9131 294.146 87.3314 293.947 87.6992 293.55C88.0671 293.153 88.251 292.65 88.251 292.041ZM92.6953 290.972V293.999H93.0566C93.2975 293.999 93.4684 294.046 93.5693 294.141C93.6735 294.232 93.7256 294.352 93.7256 294.502C93.7256 294.648 93.6735 294.769 93.5693 294.863C93.4684 294.954 93.2975 295 93.0566 295H91.7432C91.5023 295 91.3298 294.954 91.2256 294.863C91.1247 294.769 91.0742 294.647 91.0742 294.497C91.0742 294.354 91.1247 294.235 91.2256 294.141C91.3265 294.046 91.4827 293.999 91.6943 293.999V290.083H91.5381C91.2972 290.083 91.1247 290.037 91.0205 289.946C90.9196 289.852 90.8691 289.73 90.8691 289.58C90.8691 289.43 90.9196 289.31 91.0205 289.219C91.1247 289.124 91.2972 289.077 91.5381 289.077L92.6953 289.082L95.2539 293.096V290.083H94.8926C94.6517 290.083 94.4792 290.037 94.375 289.946C94.2741 289.852 94.2236 289.73 94.2236 289.58C94.2236 289.43 94.2741 289.31 94.375 289.219C94.4792 289.124 94.6517 289.077 94.8926 289.077L96.2061 289.082C96.4469 289.082 96.6178 289.128 96.7188 289.219C96.8229 289.31 96.875 289.43 96.875 289.58C96.875 289.727 96.8245 289.847 96.7236 289.941C96.6227 290.036 96.4681 290.083 96.2598 290.083V295H95.2686L92.6953 290.972ZM101.939 290.083V293.999H102.613C102.854 293.999 103.025 294.046 103.126 294.141C103.23 294.232 103.282 294.352 103.282 294.502C103.282 294.648 103.23 294.769 103.126 294.863C103.025 294.954 102.854 295 102.613 295H100.27C100.029 295 99.8561 294.954 99.752 294.863C99.651 294.769 99.6006 294.647 99.6006 294.497C99.6006 294.351 99.651 294.232 99.752 294.141C99.8561 294.046 100.029 293.999 100.27 293.999H100.938V290.083H99.8545V291.03C99.8545 291.271 99.8073 291.444 99.7129 291.548C99.6217 291.649 99.5013 291.699 99.3516 291.699C99.2051 291.699 99.0846 291.649 98.9902 291.548C98.8991 291.444 98.8535 291.271 98.8535 291.03V289.077L104.039 289.082V291.03C104.039 291.271 103.992 291.444 103.897 291.548C103.806 291.649 103.686 291.699 103.536 291.699C103.39 291.699 103.269 291.649 103.175 291.548C103.084 291.444 103.038 291.271 103.038 291.03V290.083H101.939ZM107.927 292.739V293.999H108.288C108.529 293.999 108.7 294.046 108.801 294.141C108.905 294.232 108.957 294.352 108.957 294.502C108.957 294.648 108.905 294.769 108.801 294.863C108.7 294.954 108.529 295 108.288 295H106.77C106.529 295 106.356 294.954 106.252 294.863C106.151 294.769 106.101 294.647 106.101 294.497C106.101 294.351 106.153 294.232 106.257 294.141C106.361 294.046 106.532 293.999 106.77 293.999H106.926V290.083H106.77C106.529 290.083 106.356 290.037 106.252 289.946C106.151 289.852 106.101 289.73 106.101 289.58C106.101 289.43 106.151 289.31 106.252 289.219C106.356 289.124 106.529 289.077 106.77 289.077L109.035 289.082C109.742 289.082 110.288 289.258 110.676 289.609C111.066 289.958 111.262 290.382 111.262 290.884C111.262 291.196 111.171 291.481 110.988 291.738C110.806 291.992 110.531 292.218 110.163 292.417C110.375 292.603 110.601 292.84 110.842 293.13C110.992 293.315 111.193 293.605 111.447 293.999C111.701 293.999 111.869 294.025 111.95 294.077C112.097 294.178 112.17 294.32 112.17 294.502C112.17 294.648 112.119 294.769 112.019 294.863C111.918 294.954 111.747 295 111.506 295H110.935C110.124 293.747 109.452 292.993 108.918 292.739H107.927ZM107.927 291.738H108.708C108.998 291.738 109.257 291.694 109.484 291.606C109.79 291.489 109.995 291.366 110.1 291.235C110.207 291.105 110.261 290.977 110.261 290.85C110.261 290.661 110.16 290.487 109.958 290.327C109.756 290.164 109.462 290.083 109.074 290.083H107.927V291.738ZM116.966 290.083V293.999H117.977C118.217 293.999 118.388 294.046 118.489 294.141C118.593 294.232 118.646 294.352 118.646 294.502C118.646 294.648 118.593 294.769 118.489 294.863C118.388 294.954 118.217 295 117.977 295H114.954C114.713 295 114.541 294.954 114.437 294.863C114.336 294.769 114.285 294.647 114.285 294.497C114.285 294.351 114.336 294.232 114.437 294.141C114.541 294.046 114.713 293.999 114.954 293.999H115.965V290.083H114.954C114.713 290.083 114.541 290.037 114.437 289.946C114.336 289.852 114.285 289.73 114.285 289.58C114.285 289.43 114.336 289.31 114.437 289.219C114.541 289.124 114.713 289.077 114.954 289.077L117.977 289.082C118.217 289.082 118.388 289.128 118.489 289.219C118.593 289.31 118.646 289.43 118.646 289.58C118.646 289.73 118.593 289.852 118.489 289.946C118.388 290.037 118.217 290.083 117.977 290.083H116.966ZM121.928 293.999V290.083H121.771C121.531 290.083 121.358 290.037 121.254 289.946C121.153 289.852 121.103 289.73 121.103 289.58C121.103 289.43 121.153 289.31 121.254 289.219C121.358 289.124 121.531 289.077 121.771 289.077H124.281C124.88 289.077 125.362 289.245 125.727 289.58C126.091 289.912 126.273 290.308 126.273 290.767C126.273 290.985 126.231 291.19 126.146 291.382C126.062 291.574 125.933 291.751 125.761 291.914C126.076 292.103 126.312 292.324 126.469 292.578C126.628 292.829 126.708 293.114 126.708 293.433C126.708 293.687 126.651 293.923 126.537 294.141C126.452 294.307 126.348 294.438 126.225 294.536C126.059 294.673 125.855 294.785 125.614 294.873C125.373 294.958 125.072 295 124.711 295H121.771C121.531 295 121.358 294.954 121.254 294.863C121.153 294.769 121.103 294.647 121.103 294.497C121.103 294.351 121.155 294.232 121.259 294.141C121.363 294.046 121.534 293.999 121.771 293.999H121.928ZM122.929 291.538H124.027C124.421 291.538 124.748 291.439 125.009 291.24C125.185 291.107 125.272 290.941 125.272 290.742C125.272 290.566 125.189 290.413 125.023 290.283C124.857 290.15 124.594 290.083 124.232 290.083H122.929V291.538ZM122.929 293.999H124.657C125.064 293.999 125.351 293.939 125.517 293.818C125.644 293.727 125.707 293.597 125.707 293.428C125.707 293.226 125.582 293.027 125.331 292.832C125.08 292.637 124.721 292.539 124.252 292.539H122.929V293.999ZM133.765 290.083V292.92C133.765 293.538 133.542 294.064 133.096 294.497C132.653 294.93 132.119 295.146 131.494 295.146C131.185 295.146 130.894 295.093 130.62 294.985C130.35 294.875 130.106 294.714 129.888 294.502C129.673 294.29 129.505 294.071 129.385 293.843C129.264 293.612 129.204 293.304 129.204 292.92V290.083C128.993 290.083 128.836 290.036 128.735 289.941C128.634 289.847 128.584 289.727 128.584 289.58C128.584 289.43 128.634 289.31 128.735 289.219C128.836 289.128 129.009 289.082 129.253 289.082L130.566 289.077C130.807 289.077 130.978 289.124 131.079 289.219C131.183 289.31 131.235 289.43 131.235 289.58C131.235 289.73 131.183 289.852 131.079 289.946C130.978 290.037 130.807 290.083 130.566 290.083H130.205V293.008C130.205 293.307 130.329 293.573 130.576 293.804C130.827 294.032 131.128 294.146 131.479 294.146C131.714 294.146 131.934 294.09 132.139 293.979C132.344 293.869 132.511 293.708 132.642 293.496C132.723 293.363 132.764 293.2 132.764 293.008V290.083H132.402C132.161 290.083 131.989 290.037 131.885 289.946C131.784 289.852 131.733 289.73 131.733 289.58C131.733 289.43 131.784 289.31 131.885 289.219C131.989 289.124 132.161 289.077 132.402 289.077L133.716 289.082C133.957 289.082 134.128 289.128 134.229 289.219C134.333 289.31 134.385 289.43 134.385 289.58C134.385 289.727 134.334 289.847 134.233 289.941C134.132 290.036 133.976 290.083 133.765 290.083ZM139.469 290.083V293.999H140.143C140.383 293.999 140.554 294.046 140.655 294.141C140.759 294.232 140.812 294.352 140.812 294.502C140.812 294.648 140.759 294.769 140.655 294.863C140.554 294.954 140.383 295 140.143 295H137.799C137.558 295 137.385 294.954 137.281 294.863C137.18 294.769 137.13 294.647 137.13 294.497C137.13 294.351 137.18 294.232 137.281 294.141C137.385 294.046 137.558 293.999 137.799 293.999H138.468V290.083H137.384V291.03C137.384 291.271 137.337 291.444 137.242 291.548C137.151 291.649 137.031 291.699 136.881 291.699C136.734 291.699 136.614 291.649 136.52 291.548C136.428 291.444 136.383 291.271 136.383 291.03V289.077L141.568 289.082V291.03C141.568 291.271 141.521 291.444 141.427 291.548C141.336 291.649 141.215 291.699 141.065 291.699C140.919 291.699 140.799 291.649 140.704 291.548C140.613 291.444 140.567 291.271 140.567 291.03V290.083H139.469ZM149.299 292.041C149.299 292.93 149.016 293.67 148.449 294.263C147.886 294.852 147.233 295.146 146.491 295.146C145.824 295.146 145.222 294.901 144.685 294.409C144.021 293.8 143.688 293.011 143.688 292.041C143.688 291.071 144.021 290.28 144.685 289.668C145.222 289.176 145.824 288.931 146.491 288.931C147.233 288.931 147.886 289.227 148.449 289.819C149.016 290.409 149.299 291.149 149.299 292.041ZM148.298 292.041C148.298 291.432 148.114 290.929 147.746 290.532C147.378 290.132 146.96 289.932 146.491 289.932C146.026 289.932 145.609 290.132 145.241 290.532C144.873 290.933 144.689 291.436 144.689 292.041C144.689 292.646 144.873 293.149 145.241 293.55C145.609 293.947 146.026 294.146 146.491 294.146C146.96 294.146 147.378 293.947 147.746 293.55C148.114 293.153 148.298 292.65 148.298 292.041ZM152.962 292.739V293.999H153.323C153.564 293.999 153.735 294.046 153.836 294.141C153.94 294.232 153.992 294.352 153.992 294.502C153.992 294.648 153.94 294.769 153.836 294.863C153.735 294.954 153.564 295 153.323 295H151.805C151.564 295 151.391 294.954 151.287 294.863C151.186 294.769 151.136 294.647 151.136 294.497C151.136 294.351 151.188 294.232 151.292 294.141C151.396 294.046 151.567 293.999 151.805 293.999H151.961V290.083H151.805C151.564 290.083 151.391 290.037 151.287 289.946C151.186 289.852 151.136 289.73 151.136 289.58C151.136 289.43 151.186 289.31 151.287 289.219C151.391 289.124 151.564 289.077 151.805 289.077L154.07 289.082C154.777 289.082 155.324 289.258 155.711 289.609C156.102 289.958 156.297 290.382 156.297 290.884C156.297 291.196 156.206 291.481 156.023 291.738C155.841 291.992 155.566 292.218 155.198 292.417C155.41 292.603 155.636 292.84 155.877 293.13C156.027 293.315 156.229 293.605 156.482 293.999C156.736 293.999 156.904 294.025 156.985 294.077C157.132 294.178 157.205 294.32 157.205 294.502C157.205 294.648 157.155 294.769 157.054 294.863C156.953 294.954 156.782 295 156.541 295H155.97C155.159 293.747 154.487 292.993 153.953 292.739H152.962ZM152.962 291.738H153.743C154.033 291.738 154.292 291.694 154.52 291.606C154.826 291.489 155.031 291.366 155.135 291.235C155.242 291.105 155.296 290.977 155.296 290.85C155.296 290.661 155.195 290.487 154.993 290.327C154.791 290.164 154.497 290.083 154.109 290.083H152.962V291.738ZM95.5176 314.336C95.5794 314.251 95.6462 314.188 95.7178 314.146C95.7926 314.103 95.8724 314.082 95.957 314.082C96.1035 314.082 96.2223 314.132 96.3135 314.233C96.4079 314.334 96.4551 314.505 96.4551 314.746V315.596C96.4551 315.837 96.4079 316.009 96.3135 316.113C96.2223 316.214 96.1035 316.265 95.957 316.265C95.8236 316.265 95.7161 316.227 95.6348 316.152C95.5534 316.077 95.4932 315.938 95.4541 315.732C95.4313 315.596 95.3857 315.49 95.3174 315.415C95.1839 315.269 94.9967 315.151 94.7559 315.063C94.5182 314.976 94.279 314.932 94.0381 314.932C93.7386 314.932 93.4635 314.997 93.2129 315.127C92.9622 315.257 92.7409 315.469 92.5488 315.762C92.3568 316.055 92.2607 316.403 92.2607 316.807V317.456C92.2607 317.938 92.4349 318.34 92.7832 318.662C93.1348 318.984 93.6214 319.146 94.2432 319.146C94.6143 319.146 94.9284 319.095 95.1855 318.994C95.3353 318.936 95.4948 318.82 95.6641 318.647C95.7682 318.543 95.8496 318.477 95.9082 318.447C95.9668 318.415 96.0335 318.398 96.1084 318.398C96.2419 318.398 96.359 318.449 96.46 318.55C96.5609 318.651 96.6113 318.77 96.6113 318.906C96.6113 319.043 96.543 319.189 96.4062 319.346C96.2077 319.574 95.9521 319.753 95.6396 319.883C95.2197 320.059 94.7559 320.146 94.248 320.146C93.6556 320.146 93.1217 320.024 92.6465 319.78C92.2624 319.585 91.9352 319.277 91.665 318.857C91.3949 318.434 91.2598 317.974 91.2598 317.476V316.797C91.2598 316.276 91.3802 315.791 91.6211 315.342C91.8652 314.889 92.2021 314.541 92.6318 314.297C93.0615 314.053 93.5173 313.931 93.999 313.931C94.2887 313.931 94.5589 313.965 94.8096 314.033C95.0635 314.098 95.2995 314.199 95.5176 314.336ZM104.264 317.041C104.264 317.93 103.98 318.67 103.414 319.263C102.851 319.852 102.198 320.146 101.456 320.146C100.789 320.146 100.187 319.901 99.6494 319.409C98.9854 318.8 98.6533 318.011 98.6533 317.041C98.6533 316.071 98.9854 315.28 99.6494 314.668C100.187 314.176 100.789 313.931 101.456 313.931C102.198 313.931 102.851 314.227 103.414 314.819C103.98 315.409 104.264 316.149 104.264 317.041ZM103.263 317.041C103.263 316.432 103.079 315.929 102.711 315.532C102.343 315.132 101.925 314.932 101.456 314.932C100.991 314.932 100.574 315.132 100.206 315.532C99.8382 315.933 99.6543 316.436 99.6543 317.041C99.6543 317.646 99.8382 318.149 100.206 318.55C100.574 318.947 100.991 319.146 101.456 319.146C101.925 319.146 102.343 318.947 102.711 318.55C103.079 318.153 103.263 317.65 103.263 317.041ZM107.395 316.016V318.999H107.756C107.997 318.999 108.168 319.046 108.269 319.141C108.373 319.232 108.425 319.352 108.425 319.502C108.425 319.648 108.373 319.769 108.269 319.863C108.168 319.954 107.997 320 107.756 320H106.442C106.201 320 106.031 319.954 105.93 319.863C105.826 319.769 105.773 319.647 105.773 319.497C105.773 319.351 105.824 319.232 105.925 319.141C106.026 319.046 106.182 318.999 106.394 318.999V315.083C106.218 315.067 106.084 315.013 105.993 314.922C105.905 314.831 105.861 314.717 105.861 314.58C105.861 314.43 105.912 314.31 106.013 314.219C106.117 314.124 106.289 314.077 106.53 314.077L107.629 314.082L108.991 317.095L110.329 314.077L111.438 314.082C111.678 314.082 111.849 314.128 111.95 314.219C112.054 314.31 112.106 314.43 112.106 314.58C112.106 314.717 112.061 314.831 111.97 314.922C111.879 315.013 111.747 315.067 111.574 315.083V318.999C111.786 318.999 111.942 319.046 112.043 319.141C112.144 319.235 112.194 319.355 112.194 319.502C112.194 319.648 112.142 319.769 112.038 319.863C111.937 319.954 111.766 320 111.525 320H110.207C109.969 320 109.799 319.954 109.694 319.863C109.593 319.769 109.543 319.647 109.543 319.497C109.543 319.351 109.593 319.232 109.694 319.141C109.799 319.046 109.969 318.999 110.207 318.999H110.573V316.016L109.426 318.594H108.557L107.395 316.016ZM114.9 316.016V318.999H115.262C115.503 318.999 115.674 319.046 115.774 319.141C115.879 319.232 115.931 319.352 115.931 319.502C115.931 319.648 115.879 319.769 115.774 319.863C115.674 319.954 115.503 320 115.262 320H113.948C113.707 320 113.536 319.954 113.436 319.863C113.331 319.769 113.279 319.647 113.279 319.497C113.279 319.351 113.33 319.232 113.431 319.141C113.532 319.046 113.688 318.999 113.899 318.999V315.083C113.724 315.067 113.59 315.013 113.499 314.922C113.411 314.831 113.367 314.717 113.367 314.58C113.367 314.43 113.418 314.31 113.519 314.219C113.623 314.124 113.795 314.077 114.036 314.077L115.135 314.082L116.497 317.095L117.835 314.077L118.943 314.082C119.184 314.082 119.355 314.128 119.456 314.219C119.56 314.31 119.612 314.43 119.612 314.58C119.612 314.717 119.567 314.831 119.476 314.922C119.384 315.013 119.253 315.067 119.08 315.083V318.999C119.292 318.999 119.448 319.046 119.549 319.141C119.65 319.235 119.7 319.355 119.7 319.502C119.7 319.648 119.648 319.769 119.544 319.863C119.443 319.954 119.272 320 119.031 320H117.713C117.475 320 117.304 319.954 117.2 319.863C117.099 319.769 117.049 319.647 117.049 319.497C117.049 319.351 117.099 319.232 117.2 319.141C117.304 319.046 117.475 318.999 117.713 318.999H118.079V316.016L116.932 318.594H116.062L114.9 316.016ZM126.259 315.083V317.92C126.259 318.538 126.036 319.064 125.59 319.497C125.147 319.93 124.613 320.146 123.988 320.146C123.679 320.146 123.388 320.093 123.114 319.985C122.844 319.875 122.6 319.714 122.382 319.502C122.167 319.29 121.999 319.071 121.879 318.843C121.758 318.612 121.698 318.304 121.698 317.92V315.083C121.487 315.083 121.33 315.036 121.229 314.941C121.129 314.847 121.078 314.727 121.078 314.58C121.078 314.43 121.129 314.31 121.229 314.219C121.33 314.128 121.503 314.082 121.747 314.082L123.061 314.077C123.301 314.077 123.472 314.124 123.573 314.219C123.677 314.31 123.729 314.43 123.729 314.58C123.729 314.73 123.677 314.852 123.573 314.946C123.472 315.037 123.301 315.083 123.061 315.083H122.699V318.008C122.699 318.307 122.823 318.573 123.07 318.804C123.321 319.032 123.622 319.146 123.974 319.146C124.208 319.146 124.428 319.09 124.633 318.979C124.838 318.869 125.006 318.708 125.136 318.496C125.217 318.363 125.258 318.2 125.258 318.008V315.083H124.896C124.656 315.083 124.483 315.037 124.379 314.946C124.278 314.852 124.228 314.73 124.228 314.58C124.228 314.43 124.278 314.31 124.379 314.219C124.483 314.124 124.656 314.077 124.896 314.077L126.21 314.082C126.451 314.082 126.622 314.128 126.723 314.219C126.827 314.31 126.879 314.43 126.879 314.58C126.879 314.727 126.828 314.847 126.728 314.941C126.627 315.036 126.47 315.083 126.259 315.083ZM130.225 315.972V318.999H130.586C130.827 318.999 130.998 319.046 131.099 319.141C131.203 319.232 131.255 319.352 131.255 319.502C131.255 319.648 131.203 319.769 131.099 319.863C130.998 319.954 130.827 320 130.586 320H129.272C129.032 320 128.859 319.954 128.755 319.863C128.654 319.769 128.604 319.647 128.604 319.497C128.604 319.354 128.654 319.235 128.755 319.141C128.856 319.046 129.012 318.999 129.224 318.999V315.083H129.067C128.826 315.083 128.654 315.037 128.55 314.946C128.449 314.852 128.398 314.73 128.398 314.58C128.398 314.43 128.449 314.31 128.55 314.219C128.654 314.124 128.826 314.077 129.067 314.077L130.225 314.082L132.783 318.096V315.083H132.422C132.181 315.083 132.008 315.037 131.904 314.946C131.803 314.852 131.753 314.73 131.753 314.58C131.753 314.43 131.803 314.31 131.904 314.219C132.008 314.124 132.181 314.077 132.422 314.077L133.735 314.082C133.976 314.082 134.147 314.128 134.248 314.219C134.352 314.31 134.404 314.43 134.404 314.58C134.404 314.727 134.354 314.847 134.253 314.941C134.152 315.036 133.997 315.083 133.789 315.083V320H132.798L130.225 315.972ZM139.483 315.083V318.999H140.494C140.735 318.999 140.906 319.046 141.007 319.141C141.111 319.232 141.163 319.352 141.163 319.502C141.163 319.648 141.111 319.769 141.007 319.863C140.906 319.954 140.735 320 140.494 320H137.472C137.231 320 137.058 319.954 136.954 319.863C136.853 319.769 136.803 319.647 136.803 319.497C136.803 319.351 136.853 319.232 136.954 319.141C137.058 319.046 137.231 318.999 137.472 318.999H138.482V315.083H137.472C137.231 315.083 137.058 315.037 136.954 314.946C136.853 314.852 136.803 314.73 136.803 314.58C136.803 314.43 136.853 314.31 136.954 314.219C137.058 314.124 137.231 314.077 137.472 314.077L140.494 314.082C140.735 314.082 140.906 314.128 141.007 314.219C141.111 314.31 141.163 314.43 141.163 314.58C141.163 314.73 141.111 314.852 141.007 314.946C140.906 315.037 140.735 315.083 140.494 315.083H139.483ZM146.975 315.083V318.999H147.648C147.889 318.999 148.06 319.046 148.161 319.141C148.265 319.232 148.317 319.352 148.317 319.502C148.317 319.648 148.265 319.769 148.161 319.863C148.06 319.954 147.889 320 147.648 320H145.305C145.064 320 144.891 319.954 144.787 319.863C144.686 319.769 144.636 319.647 144.636 319.497C144.636 319.351 144.686 319.232 144.787 319.141C144.891 319.046 145.064 318.999 145.305 318.999H145.974V315.083H144.89V316.03C144.89 316.271 144.842 316.444 144.748 316.548C144.657 316.649 144.536 316.699 144.387 316.699C144.24 316.699 144.12 316.649 144.025 316.548C143.934 316.444 143.889 316.271 143.889 316.03V314.077L149.074 314.082V316.03C149.074 316.271 149.027 316.444 148.933 316.548C148.841 316.649 148.721 316.699 148.571 316.699C148.425 316.699 148.304 316.649 148.21 316.548C148.119 316.444 148.073 316.271 148.073 316.03V315.083H146.975ZM154.5 317.515V318.999H155.174C155.415 318.999 155.586 319.046 155.687 319.141C155.791 319.232 155.843 319.352 155.843 319.502C155.843 319.648 155.791 319.769 155.687 319.863C155.586 319.954 155.415 320 155.174 320H152.825C152.588 320 152.417 319.954 152.312 319.863C152.212 319.769 152.161 319.647 152.161 319.497C152.161 319.351 152.212 319.232 152.312 319.141C152.417 319.046 152.588 318.999 152.825 318.999H153.499V317.515L151.844 315.083C151.622 315.083 151.46 315.036 151.355 314.941C151.255 314.847 151.204 314.727 151.204 314.58C151.204 314.43 151.255 314.31 151.355 314.219C151.46 314.124 151.632 314.077 151.873 314.077L152.781 314.082C153.022 314.082 153.193 314.128 153.294 314.219C153.398 314.31 153.45 314.43 153.45 314.58C153.45 314.805 153.318 314.972 153.055 315.083L154.002 316.479L154.93 315.083C154.783 315.028 154.679 314.958 154.617 314.873C154.555 314.788 154.524 314.691 154.524 314.58C154.524 314.43 154.575 314.31 154.676 314.219C154.78 314.128 154.952 314.08 155.193 314.077L156.136 314.082C156.377 314.082 156.548 314.128 156.648 314.219C156.753 314.31 156.805 314.43 156.805 314.58C156.805 314.73 156.753 314.852 156.648 314.946C156.544 315.037 156.375 315.083 156.141 315.083L154.5 317.515Z" fill="#C2B8CC"/>
<rect x="180" y="260" width="5" height="5" fill="#F4EDFA"/>
<rect x="180" y="270" width="5" height="5" fill="#F4EDFA"/>
<rect x="180" y="265" width="5" height="5" fill="#F4EDFA"/>
<rect x="185" y="265" width="5" height="5" fill="#F4EDFA"/>
<rect x="175" y="265" width="5" height="5" fill="#F4EDFA"/>
<rect x="205" y="260" width="5" height="5" fill="#F4EDFA"/>
<rect x="205" y="270" width="5" height="5" fill="#F4EDFA"/>
<rect x="205" y="265" width="5" height="5" fill="#F4EDFA"/>
<rect x="210" y="265" width="5" height="5" fill="#F4EDFA"/>
<rect x="200" y="265" width="5" height="5" fill="#F4EDFA"/>
<rect x="230" y="260" width="5" height="5" fill="#F4EDFA"/>
<rect x="230" y="270" width="5" height="5" fill="#F4EDFA"/>
<rect x="230" y="265" width="5" height="5" fill="#F4EDFA"/>
<rect x="235" y="265" width="5" height="5" fill="#F4EDFA"/>
<rect x="225" y="265" width="5" height="5" fill="#F4EDFA"/>
<rect x="180" y="310" width="5" height="5" fill="#F4EDFA"/>
<rect x="180" y="320" width="5" height="5" fill="#F4EDFA"/>
<rect x="180" y="315" width="5" height="5" fill="#F4EDFA"/>
<rect x="185" y="315" width="5" height="5" fill="#F4EDFA"/>
<rect x="175" y="315" width="5" height="5" fill="#F4EDFA"/>
<rect x="205" y="310" width="5" height="5" fill="#F4EDFA"/>
<rect x="205" y="320" width="5" height="5" fill="#F4EDFA"/>
<rect x="205" y="315" width="5" height="5" fill="#F4EDFA"/>
<rect x="210" y="315" width="5" height="5" fill="#F4EDFA"/>
<rect x="200" y="315" width="5" height="5" fill="#F4EDFA"/>
<rect x="230" y="310" width="5" height="5" fill="#F4EDFA"/>
<rect x="230" y="320" width="5" height="5" fill="#F4EDFA"/>
<rect x="230" y="315" width="5" height="5" fill="#F4EDFA"/>
<rect x="235" y="315" width="5" height="5" fill="#F4EDFA"/>
<rect x="225" y="315" width="5" height="5" fill="#F4EDFA"/>
<rect x="180" y="285" width="5" height="5" fill="#F4EDFA"/>
<rect x="180" y="295" width="5" height="5" fill="#F4EDFA"/>
<rect x="180" y="290" width="5" height="5" fill="#F4EDFA"/>
<rect x="185" y="290" width="5" height="5" fill="#F4EDFA"/>
<rect x="175" y="290" width="5" height="5" fill="#F4EDFA"/>
<rect x="205" y="285" width="5" height="5" fill="#F4EDFA"/>
<rect x="205" y="295" width="5" height="5" fill="#F4EDFA"/>
<rect x="205" y="290" width="5" height="5" fill="#F4EDFA"/>
<rect x="210" y="290" width="5" height="5" fill="#F4EDFA"/>
<rect x="200" y="290" width="5" height="5" fill="#F4EDFA"/>
<rect x="230" y="285" width="5" height="5" fill="#F4EDFA"/>
<rect x="230" y="295" width="5" height="5" fill="#F4EDFA"/>
<rect x="230" y="290" width="5" height="5" fill="#F4EDFA"/>
<rect x="235" y="290" width="5" height="5" fill="#F4EDFA"/>
<rect x="225" y="290" width="5" height="5" fill="#F4EDFA"/>
<g style="mix-blend-mode:multiply">
<rect x="125" y="135" width="85" height="85" fill="#EFEAF3"/>
<rect x="130" y="140" width="75" height="75" fill="white"/>
<rect width="5" height="65" transform="matrix(-1 0 0 1 200 145)" fill="#EFEAF3"/>
<rect width="5" height="65" transform="matrix(-1 0 0 1 140 145)" fill="#EFEAF3"/>
<rect width="15" height="5" transform="matrix(-1 0 0 1 175 145)" fill="#EFEAF3"/>
<rect x="100" y="105" width="5" height="20" fill="#EFEAF3"/>
<rect x="150" y="105" width="5" height="10" fill="#EFEAF3"/>
<rect x="190" y="75" width="5" height="10" fill="#EFEAF3"/>
<rect x="170" y="105" width="5" height="20" fill="#EFEAF3"/>
<rect x="165" y="85" width="5" height="20" fill="#EFEAF3"/>
<rect x="195" y="85" width="5" height="15" fill="#EFEAF3"/>
<rect x="200" y="100" width="5" height="15" fill="#EFEAF3"/>
<rect x="195" y="115" width="5" height="20" fill="#EFEAF3"/>
<rect x="135" y="130" width="5" height="10" fill="#EFEAF3"/>
<rect x="140" y="140" width="5" height="10" fill="#EFEAF3"/>
<rect x="190" y="135" width="5" height="15" fill="#EFEAF3"/>
<rect x="155" y="115" width="5" height="35" fill="#EFEAF3"/>
<rect x="175" y="125" width="5" height="25" fill="#EFEAF3"/>
<rect x="105" y="100" width="5" height="5" fill="#EFEAF3"/>
<rect x="140" y="95" width="5" height="5" fill="#EFEAF3"/>
<rect x="145" y="100" width="5" height="5" fill="#EFEAF3"/>
<rect x="170" y="75" width="5" height="10" fill="#EFEAF3"/>
<rect x="140" y="110" width="5" height="5" fill="#EFEAF3"/>
<rect x="130" y="125" width="5" height="5" fill="#EFEAF3"/>
<rect x="110" y="95" width="15" height="5" fill="#EFEAF3"/>
<rect x="105" y="125" width="15" height="5" fill="#EFEAF3"/>
<rect x="130" y="115" width="10" height="5" fill="#EFEAF3"/>
<rect x="120" y="120" width="15" height="5" fill="#EFEAF3"/>
<rect x="125" y="90" width="15" height="5" fill="#EFEAF3"/>
<rect x="125" y="95" width="15" height="5" fill="white"/>
<rect x="175" y="75" width="15" height="10" fill="white"/>
<rect x="170" y="85" width="25" height="15" fill="white"/>
<rect x="170" y="100" width="30" height="5" fill="white"/>
<rect x="175" y="105" width="25" height="10" fill="white"/>
<rect x="175" y="115" width="20" height="10" fill="white"/>
<rect x="180" y="125" width="15" height="10" fill="white"/>
<rect x="180" y="135" width="10" height="15" fill="white"/>
<rect x="140" y="115" width="15" height="5" fill="white"/>
<rect x="135" y="120" width="20" height="10" fill="white"/>
<rect x="140" y="130" width="15" height="10" fill="white"/>
<rect x="145" y="140" width="10" height="10" fill="white"/>
<rect x="105" y="120" width="15" height="5" fill="white"/>
<rect x="110" y="100" width="35" height="5" fill="white"/>
<rect x="105" y="105" width="45" height="5" fill="white"/>
<rect x="145" y="110" width="5" height="5" fill="white"/>
<rect x="105" y="110" width="35" height="5" fill="white"/>
<rect x="105" y="115" width="25" height="5" fill="white"/>
<rect x="175" y="70" width="15" height="5" fill="#EFEAF3"/>
<rect width="55" height="5" transform="matrix(-1 0 0 1 195 205)" fill="#EFEAF3"/>
<rect width="55" height="55" transform="matrix(-1 0 0 1 195 150)" fill="white"/>
<rect x="150" y="165" width="5" height="5" fill="#EFEAF3"/>
<rect x="180" y="165" width="5" height="5" fill="#EFEAF3"/>
<rect x="145" y="170" width="5" height="5" fill="#EFEAF3"/>
<rect x="155" y="170" width="5" height="5" fill="#EFEAF3"/>
<rect x="175" y="170" width="5" height="5" fill="#EFEAF3"/>
<rect x="185" y="170" width="5" height="5" fill="#EFEAF3"/>
<rect x="160" y="185" width="15" height="5" fill="#EFEAF3"/>
<rect x="165" y="190" width="5" height="5" fill="#EFEAF3"/>
</g>
<defs>
<filter id="filter0_i_3849_17159" x="37" y="26" width="261" height="355" filterUnits="userSpaceOnUse" color-interpolation-filters="sRGB">
<feFlood flood-opacity="0" result="BackgroundImageFix"/>
<feBlend mode="normal" in="SourceGraphic" in2="BackgroundImageFix" result="shape"/>
<feColorMatrix in="SourceAlpha" type="matrix" values="0 0 0 0 0 0 0 0 0 0 0 0 0 0 0 0 0 0 127 0" result="hardAlpha"/>
<feOffset/>
<feGaussianBlur stdDeviation="27.5"/>
<feComposite in2="hardAlpha" operator="arithmetic" k2="-1" k3="1"/>
<feColorMatrix type="matrix" values="0 0 0 0 0.937408 0 0 0 0 0.9118 0 0 0 0 0.97 0 0 0 1 0"/>
<feBlend mode="normal" in2="shape" result="effect1_innerShadow_3849_17159"/>
</filter>
</defs>
</svg>
