<svg width="117" height="117" viewBox="0 0 117 117" fill="none" xmlns="http://www.w3.org/2000/svg">
<g clip-path="url(#clip0_4003_25429)">
<rect width="117" height="117" transform="translate(-0.000244141)" fill="white"/>
<rect width="2.99999" height="38.9999" transform="matrix(-1 0 0 1 77.9995 48)" fill="#E6DED6"/>
<rect width="2.99999" height="38.9999" transform="matrix(-1 0 0 1 41.9998 48)" fill="#E6DED6"/>
<rect width="8.99998" height="2.99999" transform="matrix(-1 0 0 1 62.9995 48)" fill="#E6DED6"/>
<rect x="17.9998" y="24" width="2.99999" height="12" fill="#E6DED6"/>
<rect x="47.9998" y="24" width="2.99999" height="5.99999" fill="#E6DED6"/>
<rect x="71.9995" y="6" width="2.99999" height="5.99999" fill="#E6DED6"/>
<rect x="59.9995" y="24" width="2.99999" height="12" fill="#E6DED6"/>
<rect x="56.9995" y="12" width="2.99999" height="12" fill="#E6DED6"/>
<rect x="74.9995" y="12" width="2.99999" height="8.99998" fill="#E6DED6"/>
<rect x="77.9995" y="21" width="2.99999" height="8.99998" fill="#E6DED6"/>
<rect x="74.9995" y="30" width="2.99999" height="12" fill="#E6DED6"/>
<rect x="38.9998" y="39" width="2.99999" height="5.99999" fill="#E6DED6"/>
<rect x="41.9998" y="45" width="2.99999" height="5.99999" fill="#E6DED6"/>
<rect x="71.9995" y="42" width="2.99999" height="8.99998" fill="#E6DED6"/>
<rect x="50.9998" y="30" width="2.99999" height="21" fill="#E6DED6"/>
<rect x="62.9995" y="36" width="2.99999" height="15" fill="#E6DED6"/>
<rect x="20.9998" y="21" width="2.99999" height="2.99999" fill="#E6DED6"/>
<rect x="41.9998" y="18" width="2.99999" height="2.99999" fill="#E6DED6"/>
<rect x="44.9998" y="21" width="2.99999" height="2.99999" fill="#E6DED6"/>
<rect x="59.9995" y="6" width="2.99999" height="5.99999" fill="#E6DED6"/>
<rect x="41.9998" y="27" width="2.99999" height="2.99999" fill="#E6DED6"/>
<rect x="35.9998" y="36" width="2.99999" height="2.99999" fill="#E6DED6"/>
<rect x="23.9998" y="18" width="8.99998" height="2.99999" fill="#E6DED6"/>
<rect x="20.9998" y="36" width="8.99998" height="2.99999" fill="#E6DED6"/>
<rect x="35.9998" y="30" width="5.99999" height="2.99999" fill="#E6DED6"/>
<rect x="29.9998" y="33" width="8.99998" height="2.99999" fill="#E6DED6"/>
<rect x="32.9998" y="15" width="8.99998" height="2.99999" fill="#E6DED6"/>
<rect x="32.9998" y="18" width="8.99998" height="2.99999" fill="#FEFEFE"/>
<rect x="62.9995" y="6" width="8.99998" height="5.99999" fill="#FEFEFE"/>
<rect x="59.9995" y="12" width="15" height="8.99998" fill="#FEFEFE"/>
<rect x="59.9995" y="21" width="18" height="2.99999" fill="#FEFEFE"/>
<rect x="62.9995" y="24" width="15" height="5.99999" fill="#FEFEFE"/>
<rect x="62.9995" y="30" width="12" height="5.99999" fill="#FEFEFE"/>
<rect x="65.9995" y="36" width="8.99998" height="5.99999" fill="#FEFEFE"/>
<rect x="65.9995" y="42" width="5.99999" height="8.99998" fill="#FEFEFE"/>
<rect x="41.9998" y="30" width="8.99998" height="2.99999" fill="#FEFEFE"/>
<rect x="38.9998" y="33" width="12" height="5.99999" fill="#FEFEFE"/>
<rect x="41.9998" y="39" width="8.99998" height="5.99999" fill="#FEFEFE"/>
<rect x="44.9998" y="45" width="5.99999" height="5.99999" fill="#FEFEFE"/>
<rect x="20.9998" y="33" width="8.99998" height="2.99999" fill="#FEFEFE"/>
<rect x="23.9998" y="21" width="21" height="2.99999" fill="#FEFEFE"/>
<rect x="20.9998" y="24" width="26.9999" height="2.99999" fill="#FEFEFE"/>
<rect x="44.9998" y="27" width="2.99999" height="2.99999" fill="#FEFEFE"/>
<rect x="20.9998" y="27" width="21" height="2.99999" fill="#FEFEFE"/>
<rect x="20.9998" y="30" width="15" height="2.99999" fill="#FEFEFE"/>
<rect x="62.9995" y="3" width="8.99998" height="2.99999" fill="#E6DED6"/>
<rect width="32.9999" height="2.99999" transform="matrix(-1 0 0 1 74.9995 84)" fill="#E6DED6"/>
<rect width="32.9999" height="32.9999" transform="matrix(-1 0 0 1 74.9995 51)" fill="#FEFEFE"/>
<rect x="47.9998" y="60" width="2.99999" height="2.99999" fill="#E6DED6"/>
<rect x="65.9995" y="60" width="2.99999" height="2.99999" fill="#E6DED6"/>
<rect x="44.9998" y="63" width="2.99999" height="2.99999" fill="#E6DED6"/>
<rect x="50.9998" y="63" width="2.99999" height="2.99999" fill="#E6DED6"/>
<rect x="62.9995" y="63" width="2.99999" height="2.99999" fill="#E6DED6"/>
<rect x="68.9995" y="63" width="2.99999" height="2.99999" fill="#E6DED6"/>
<rect x="53.9995" y="72" width="8.99998" height="2.99999" fill="#E6DED6"/>
<rect x="56.9995" y="75" width="2.99999" height="2.99999" fill="#E6DED6"/>
<rect x="35.9998" y="69" width="2.99999" height="2.99999" fill="#EEEEEE"/>
<rect x="77.9995" y="69" width="2.99999" height="2.99999" fill="#FB9000"/>
<rect x="32.9998" y="72" width="2.99999" height="2.99999" fill="#EEEEEE"/>
<rect x="35.9998" y="72" width="2.99999" height="2.99999" fill="#EEEEEE"/>
<rect x="77.9995" y="72" width="2.99999" height="2.99999" fill="#FB9000"/>
<rect x="80.9995" y="72" width="2.99999" height="2.99999" fill="#FFA62E"/>
<rect x="29.9998" y="75" width="2.99999" height="2.99999" fill="#DDDDDD"/>
<rect x="32.9998" y="75" width="2.99999" height="2.99999" fill="#EEEEEE"/>
<rect x="35.9998" y="75" width="2.99999" height="2.99999" fill="#EEEEEE"/>
<rect x="77.9995" y="75" width="2.99999" height="2.99999" fill="#FB9000"/>
<rect x="80.9995" y="75" width="2.99999" height="2.99999" fill="#FFA62E"/>
<rect x="29.9998" y="78" width="2.99999" height="2.99999" fill="#DDDDDD"/>
<rect x="32.9998" y="78" width="2.99999" height="2.99999" fill="#EEEEEE"/>
<rect x="35.9998" y="78" width="2.99999" height="2.99999" fill="#FFA62E"/>
<rect x="77.9995" y="78" width="2.99999" height="2.99999" fill="#DDDDDD"/>
<rect x="80.9995" y="78" width="2.99999" height="2.99999" fill="#EEEEEE"/>
<rect x="83.9995" y="78" width="2.99999" height="2.99999" fill="#EEEEEE"/>
<rect x="29.9998" y="81" width="2.99999" height="2.99999" fill="#FB9000"/>
<rect x="32.9998" y="81" width="2.99999" height="2.99999" fill="#FFA62E"/>
<rect x="35.9998" y="81" width="2.99999" height="2.99999" fill="#FFA62E"/>
<rect x="77.9995" y="81" width="2.99999" height="2.99999" fill="#DDDDDD"/>
<rect x="80.9995" y="81" width="2.99999" height="2.99999" fill="#EEEEEE"/>
<rect x="83.9995" y="81" width="2.99999" height="2.99999" fill="#EEEEEE"/>
<rect x="29.9998" y="84" width="2.99999" height="2.99999" fill="#FB9000"/>
<rect x="32.9998" y="84" width="2.99999" height="2.99999" fill="#FFA62E"/>
<rect x="35.9998" y="84" width="2.99999" height="2.99999" fill="#FFA62E"/>
<rect x="77.9995" y="84" width="2.99999" height="2.99999" fill="#DDDDDD"/>
<rect x="80.9995" y="84" width="2.99999" height="2.99999" fill="#EEEEEE"/>
<rect x="83.9995" y="84" width="2.99999" height="2.99999" fill="#EEEEEE"/>
<rect x="32.9998" y="87" width="2.99999" height="2.99999" fill="#FB9000"/>
<rect x="35.9998" y="87" width="2.99999" height="2.99999" fill="#FFA62E"/>
<rect x="38.9998" y="87" width="2.99999" height="2.99999" fill="#FFA62E"/>
<rect x="41.9998" y="87" width="2.99999" height="2.99999" fill="#FFA62E"/>
<rect x="44.9998" y="87" width="2.99999" height="2.99999" fill="#EEEEEE"/>
<rect x="47.9998" y="87" width="2.99999" height="2.99999" fill="#EEEEEE"/>
<rect x="50.9998" y="87" width="2.99999" height="2.99999" fill="#EEEEEE"/>
<rect x="53.9995" y="87" width="2.99999" height="2.99999" fill="#FAFAFA"/>
<rect x="56.9995" y="87" width="2.99999" height="2.99999" fill="#FAFAFA"/>
<rect x="59.9995" y="87" width="2.99999" height="2.99999" fill="#FFA62E"/>
<rect x="62.9995" y="87" width="2.99999" height="2.99999" fill="#FFA62E"/>
<rect x="65.9995" y="87" width="2.99999" height="2.99999" fill="#FFA62E"/>
<rect x="68.9995" y="87" width="2.99999" height="2.99999" fill="#FFB653"/>
<rect x="71.9995" y="87" width="2.99999" height="2.99999" fill="#FFB653"/>
<rect x="74.9995" y="87" width="2.99999" height="2.99999" fill="#EEEEEE"/>
<rect x="77.9995" y="87" width="2.99999" height="2.99999" fill="#EEEEEE"/>
<rect x="80.9995" y="87" width="2.99999" height="2.99999" fill="#EEEEEE"/>
<rect x="35.9998" y="90" width="2.99999" height="2.99999" fill="#FB9000"/>
<rect x="38.9998" y="90" width="2.99999" height="2.99999" fill="#FFA62E"/>
<rect x="41.9998" y="90" width="2.99999" height="2.99999" fill="#EEEEEE"/>
<rect x="44.9998" y="90" width="2.99999" height="2.99999" fill="#EEEEEE"/>
<rect x="47.9998" y="90" width="2.99999" height="2.99999" fill="#EEEEEE"/>
<rect x="50.9998" y="90" width="2.99999" height="2.99999" fill="#EEEEEE"/>
<rect x="53.9995" y="90" width="2.99999" height="2.99999" fill="#EEEEEE"/>
<rect x="56.9995" y="90" width="2.99999" height="2.99999" fill="#EEEEEE"/>
<rect x="59.9995" y="90" width="2.99999" height="2.99999" fill="#FAFAFA"/>
<rect x="62.9995" y="90" width="2.99999" height="2.99999" fill="#FFA62E"/>
<rect x="65.9995" y="90" width="2.99999" height="2.99999" fill="#FFA62E"/>
<rect x="68.9995" y="90" width="2.99999" height="2.99999" fill="#FFA62E"/>
<rect x="71.9995" y="90" width="2.99999" height="2.99999" fill="#FFA62E"/>
<rect x="74.9995" y="90" width="2.99999" height="2.99999" fill="#FFA62E"/>
<rect x="77.9995" y="90" width="2.99999" height="2.99999" fill="#EEEEEE"/>
<rect x="38.9998" y="93" width="2.99999" height="2.99999" fill="#FB9000"/>
<rect x="41.9998" y="93" width="2.99999" height="2.99999" fill="#DDDDDD"/>
<rect x="44.9998" y="93" width="2.99999" height="2.99999" fill="#EEEEEE"/>
<rect x="47.9998" y="93" width="2.99999" height="2.99999" fill="#EEEEEE"/>
<rect x="50.9998" y="93" width="2.99999" height="2.99999" fill="#EEEEEE"/>
<rect x="53.9995" y="93" width="2.99999" height="2.99999" fill="#EEEEEE"/>
<rect x="56.9995" y="93" width="2.99999" height="2.99999" fill="#EEEEEE"/>
<rect x="59.9995" y="93" width="2.99999" height="2.99999" fill="#EEEEEE"/>
<rect x="62.9995" y="93" width="2.99999" height="2.99999" fill="#FFA62E"/>
<rect x="65.9995" y="93" width="2.99999" height="2.99999" fill="#FFA62E"/>
<rect x="68.9995" y="93" width="2.99999" height="2.99999" fill="#FFA62E"/>
<rect x="71.9995" y="93" width="2.99999" height="2.99999" fill="#FFA62E"/>
<rect x="74.9995" y="93" width="2.99999" height="2.99999" fill="#FFA62E"/>
<rect x="44.9998" y="96" width="2.99999" height="2.99999" fill="#DDDDDD"/>
<rect x="47.9998" y="96" width="2.99999" height="2.99999" fill="#DDDDDD"/>
<rect x="50.9998" y="96" width="2.99999" height="2.99999" fill="#DDDDDD"/>
<rect x="53.9995" y="96" width="2.99999" height="2.99999" fill="#DDDDDD"/>
<rect x="56.9995" y="96" width="2.99999" height="2.99999" fill="#DDDDDD"/>
<rect x="59.9995" y="96" width="2.99999" height="2.99999" fill="#DDDDDD"/>
<rect x="62.9995" y="96" width="2.99999" height="2.99999" fill="#FB9000"/>
<rect x="65.9995" y="96" width="2.99999" height="2.99999" fill="#FB9000"/>
<rect x="68.9995" y="96" width="2.99999" height="2.99999" fill="#FB9000"/>
</g>
<defs>
<clipPath id="clip0_4003_25429">
<rect width="117" height="117" fill="white" transform="translate(-0.000244141)"/>
</clipPath>
</defs>
</svg>
