<svg width="117" height="117" viewBox="0 0 117 117" fill="none" xmlns="http://www.w3.org/2000/svg">
<g clip-path="url(#clip0_4003_25410)">
<rect width="117" height="117" fill="white"/>
<rect width="3" height="39" transform="matrix(-1 0 0 1 78 48)" fill="#E6DED6"/>
<rect width="3" height="39" transform="matrix(-1 0 0 1 42 48)" fill="#E6DED6"/>
<rect width="9" height="3" transform="matrix(-1 0 0 1 63 48)" fill="#E6DED6"/>
<rect x="18" y="24" width="3" height="12" fill="#E6DED6"/>
<rect x="48" y="24" width="3" height="6" fill="#E6DED6"/>
<rect x="72" y="6" width="3" height="6" fill="#E6DED6"/>
<rect x="60" y="24" width="3" height="12" fill="#E6DED6"/>
<rect x="57" y="12" width="3" height="12" fill="#E6DED6"/>
<rect x="75" y="12" width="3" height="9" fill="#E6DED6"/>
<rect x="78" y="21" width="3" height="9" fill="#E6DED6"/>
<rect x="75" y="30" width="3" height="12" fill="#E6DED6"/>
<rect x="39" y="39" width="3" height="6" fill="#E6DED6"/>
<rect x="42" y="45" width="3" height="6" fill="#E6DED6"/>
<rect x="72" y="42" width="3" height="9" fill="#E6DED6"/>
<rect x="51" y="30" width="3" height="21" fill="#E6DED6"/>
<rect x="63" y="36" width="3" height="15" fill="#E6DED6"/>
<rect x="21" y="21" width="3" height="3" fill="#E6DED6"/>
<rect x="42" y="18" width="3" height="3" fill="#E6DED6"/>
<rect x="45" y="21" width="3" height="3" fill="#E6DED6"/>
<rect x="60" y="6" width="3" height="6" fill="#E6DED6"/>
<rect x="42" y="27" width="3" height="3" fill="#E6DED6"/>
<rect x="36" y="36" width="3" height="3" fill="#E6DED6"/>
<rect x="24" y="18" width="9" height="3" fill="#E6DED6"/>
<rect x="21" y="36" width="9" height="3" fill="#E6DED6"/>
<rect x="36" y="30" width="6" height="3" fill="#E6DED6"/>
<rect x="30" y="33" width="9" height="3" fill="#E6DED6"/>
<rect x="33" y="15" width="9" height="3" fill="#E6DED6"/>
<rect x="33" y="18" width="9" height="3" fill="#FEFEFE"/>
<rect x="63" y="6" width="9" height="6" fill="#FEFEFE"/>
<rect x="60" y="12" width="15" height="9" fill="#FEFEFE"/>
<rect x="60" y="21" width="18" height="3" fill="#FEFEFE"/>
<rect x="63" y="24" width="15" height="6" fill="#FEFEFE"/>
<rect x="63" y="30" width="12" height="6" fill="#FEFEFE"/>
<rect x="66" y="36" width="9" height="6" fill="#FEFEFE"/>
<rect x="66" y="42" width="6" height="9" fill="#FEFEFE"/>
<rect x="42" y="30" width="9" height="3" fill="#FEFEFE"/>
<rect x="39" y="33" width="12" height="6" fill="#FEFEFE"/>
<rect x="42" y="39" width="9" height="6" fill="#FEFEFE"/>
<rect x="45" y="45" width="6" height="6" fill="#FEFEFE"/>
<rect x="21" y="33" width="9" height="3" fill="#FEFEFE"/>
<rect x="24" y="21" width="21" height="3" fill="#FEFEFE"/>
<rect x="21" y="24" width="27" height="3" fill="#FEFEFE"/>
<rect x="45" y="27" width="3" height="3" fill="#FEFEFE"/>
<rect x="21" y="27" width="21" height="3" fill="#FEFEFE"/>
<rect x="21" y="30" width="15" height="3" fill="#FEFEFE"/>
<rect x="63" y="3" width="9" height="3" fill="#E6DED6"/>
<rect width="33" height="3" transform="matrix(-1 0 0 1 75 84)" fill="#E6DED6"/>
<rect width="33" height="33" transform="matrix(-1 0 0 1 75 51)" fill="#FEFEFE"/>
<rect x="48" y="60" width="3" height="3" fill="#E6DED6"/>
<rect x="66" y="60" width="3" height="3" fill="#E6DED6"/>
<rect x="45" y="63" width="3" height="3" fill="#E6DED6"/>
<rect x="51" y="63" width="3" height="3" fill="#E6DED6"/>
<rect x="63" y="63" width="3" height="3" fill="#E6DED6"/>
<rect x="69" y="63" width="3" height="3" fill="#E6DED6"/>
<rect x="54" y="72" width="9" height="3" fill="#E6DED6"/>
<rect x="57" y="75" width="3" height="3" fill="#E6DED6"/>
<rect x="21" y="84" width="3" height="3" fill="#241F89"/>
<rect x="24" y="87" width="3" height="3" fill="#241F89"/>
<rect x="39" y="87" width="3" height="3" fill="#241F89"/>
<rect x="42" y="87" width="6" height="3" fill="#423BDC"/>
<rect x="48" y="87" width="3" height="3" fill="#241F89"/>
<rect x="51" y="87" width="12" height="3" fill="#423BDC"/>
<rect x="63" y="87" width="3" height="3" fill="#241F89"/>
<rect x="66" y="87" width="6" height="3" fill="#423BDC"/>
<rect x="72" y="87" width="3" height="3" fill="#241F89"/>
<rect x="24" y="90" width="3" height="3" fill="#241F89"/>
<rect x="36" y="90" width="3" height="3" fill="#241F89"/>
<rect x="39" y="90" width="6" height="3" fill="#423BDC"/>
<rect x="45" y="90" width="3" height="3" fill="#241F89"/>
<rect x="48" y="90" width="12" height="3" fill="#423BDC"/>
<rect x="60" y="90" width="3" height="3" fill="#241F89"/>
<rect x="63" y="90" width="9" height="3" fill="#423BDC"/>
<rect x="72" y="90" width="3" height="3" fill="#241F89"/>
<rect x="21" y="90" width="3" height="3" fill="#423BDC"/>
<rect x="24" y="93" width="3" height="3" fill="#423BDC"/>
<rect x="27" y="93" width="9" height="3" fill="#241F89"/>
<rect x="36" y="93" width="9" height="3" fill="#423BDC"/>
<rect x="45" y="93" width="3" height="3" fill="#241F89"/>
<rect x="48" y="93" width="12" height="3" fill="#423BDC"/>
<rect x="60" y="93" width="3" height="3" fill="#241F89"/>
<rect x="63" y="93" width="6" height="3" fill="#423BDC"/>
<rect x="69" y="93" width="3" height="3" fill="#241F89"/>
<rect x="24" y="96" width="21" height="3" fill="#423BDC"/>
<rect x="45" y="96" width="3" height="3" fill="#241F89"/>
<rect x="48" y="96" width="12" height="3" fill="#423BDC"/>
<rect x="60" y="96" width="3" height="3" fill="#241F89"/>
<rect x="21" y="96" width="3" height="3" fill="#423BDC"/>
<rect x="24" y="99" width="21" height="3" fill="#423BDC"/>
<rect x="48" y="99" width="15" height="3" fill="#423BDC"/>
<rect x="63" y="99" width="3" height="3" fill="#241F89"/>
<rect x="30" y="102" width="9" height="3" fill="#423BDC"/>
<rect x="51" y="102" width="12" height="3" fill="#423BDC"/>
<rect x="63" y="102" width="3" height="3" fill="#241F89"/>
<rect x="51" y="105" width="12" height="3" fill="#423BDC"/>
<rect x="63" y="105" width="3" height="3" fill="#241F89"/>
<rect x="48" y="108" width="3" height="3" fill="#423BDC"/>
<rect x="54" y="108" width="3" height="3" fill="#423BDC"/>
<rect x="60" y="108" width="3" height="3" fill="#241F89"/>
</g>
<defs>
<clipPath id="clip0_4003_25410">
<rect width="117" height="117" fill="white"/>
</clipPath>
</defs>
</svg>
