<svg width="117" height="117" viewBox="0 0 117 117" fill="none" xmlns="http://www.w3.org/2000/svg">
<g clip-path="url(#clip0_4003_25390)">
<rect width="117" height="117" fill="white"/>
<rect width="3" height="39" transform="matrix(-1 0 0 1 78 48)" fill="#E6DED6"/>
<rect width="3" height="39" transform="matrix(-1 0 0 1 42 48)" fill="#E6DED6"/>
<rect width="9" height="3" transform="matrix(-1 0 0 1 63 48)" fill="#E6DED6"/>
<rect x="18" y="24" width="3" height="12" fill="#E6DED6"/>
<rect x="48" y="24" width="3" height="6" fill="#E6DED6"/>
<rect x="72" y="6" width="3" height="6" fill="#E6DED6"/>
<rect x="60" y="24" width="3" height="12" fill="#E6DED6"/>
<rect x="57" y="12" width="3" height="12" fill="#E6DED6"/>
<rect x="75" y="12" width="3" height="9" fill="#E6DED6"/>
<rect x="78" y="21" width="3" height="9" fill="#E6DED6"/>
<rect x="75" y="30" width="3" height="12" fill="#E6DED6"/>
<rect x="39" y="39" width="3" height="6" fill="#E6DED6"/>
<rect x="42" y="45" width="3" height="6" fill="#E6DED6"/>
<rect x="72" y="42" width="3" height="9" fill="#E6DED6"/>
<rect x="51" y="30" width="3" height="21" fill="#E6DED6"/>
<rect x="63" y="36" width="3" height="15" fill="#E6DED6"/>
<rect x="21" y="21" width="3" height="3" fill="#E6DED6"/>
<rect x="42" y="18" width="3" height="3" fill="#E6DED6"/>
<rect x="45" y="21" width="3" height="3" fill="#E6DED6"/>
<rect x="60" y="6" width="3" height="6" fill="#E6DED6"/>
<rect x="42" y="27" width="3" height="3" fill="#E6DED6"/>
<rect x="36" y="36" width="3" height="3" fill="#E6DED6"/>
<rect x="24" y="18" width="9" height="3" fill="#E6DED6"/>
<rect x="21" y="36" width="9" height="3" fill="#E6DED6"/>
<rect x="36" y="30" width="6" height="3" fill="#E6DED6"/>
<rect x="30" y="33" width="9" height="3" fill="#E6DED6"/>
<rect x="33" y="15" width="9" height="3" fill="#E6DED6"/>
<rect x="33" y="18" width="9" height="3" fill="#FEFEFE"/>
<rect x="63" y="6" width="9" height="6" fill="#FEFEFE"/>
<rect x="60" y="12" width="15" height="9" fill="#FEFEFE"/>
<rect x="60" y="21" width="18" height="3" fill="#FEFEFE"/>
<rect x="63" y="24" width="15" height="6" fill="#FEFEFE"/>
<rect x="63" y="30" width="12" height="6" fill="#FEFEFE"/>
<rect x="66" y="36" width="9" height="6" fill="#FEFEFE"/>
<rect x="66" y="42" width="6" height="9" fill="#FEFEFE"/>
<rect x="42" y="30" width="9" height="3" fill="#FEFEFE"/>
<rect x="39" y="33" width="12" height="6" fill="#FEFEFE"/>
<rect x="42" y="39" width="9" height="6" fill="#FEFEFE"/>
<rect x="45" y="45" width="6" height="6" fill="#FEFEFE"/>
<rect x="21" y="33" width="9" height="3" fill="#FEFEFE"/>
<rect x="24" y="21" width="21" height="3" fill="#FEFEFE"/>
<rect x="21" y="24" width="27" height="3" fill="#FEFEFE"/>
<rect x="45" y="27" width="3" height="3" fill="#FEFEFE"/>
<rect x="21" y="27" width="21" height="3" fill="#FEFEFE"/>
<rect x="21" y="30" width="15" height="3" fill="#FEFEFE"/>
<rect x="63" y="3" width="9" height="3" fill="#E6DED6"/>
<rect width="33" height="3" transform="matrix(-1 0 0 1 75 84)" fill="#E6DED6"/>
<rect width="33" height="33" transform="matrix(-1 0 0 1 75 51)" fill="#FEFEFE"/>
<rect x="48" y="60" width="3" height="3" fill="#E6DED6"/>
<rect x="66" y="60" width="3" height="3" fill="#E6DED6"/>
<rect x="45" y="63" width="3" height="3" fill="#E6DED6"/>
<rect x="51" y="63" width="3" height="3" fill="#E6DED6"/>
<rect x="63" y="63" width="3" height="3" fill="#E6DED6"/>
<rect x="69" y="63" width="3" height="3" fill="#E6DED6"/>
<rect x="54" y="72" width="9" height="3" fill="#E6DED6"/>
<rect x="57" y="75" width="3" height="3" fill="#E6DED6"/>
<rect x="36" y="75" width="3" height="3" fill="#F48FFF"/>
<rect x="78" y="75" width="3" height="3" fill="#E34DF3"/>
<rect x="84" y="75" width="3" height="3" fill="#A7DF69"/>
<rect x="30" y="78" width="3" height="3" fill="#A7DF69"/>
<rect x="33" y="78" width="3" height="3" fill="#F48FFF"/>
<rect x="36" y="78" width="3" height="3" fill="#D819EC"/>
<rect x="39" y="78" width="3" height="3" fill="#F48FFF"/>
<rect x="78" y="78" width="3" height="3" fill="#A7DF69"/>
<rect x="81" y="78" width="3" height="3" fill="#C6EF99"/>
<rect x="33" y="81" width="3" height="3" fill="#A7DF69"/>
<rect x="36" y="81" width="3" height="3" fill="#F48FFF"/>
<rect x="39" y="81" width="3" height="3" fill="#A9C38D"/>
<rect x="78" y="81" width="3" height="3" fill="#A7DF69"/>
<rect x="81" y="81" width="3" height="3" fill="#F48FFF"/>
<rect x="84" y="81" width="3" height="3" fill="#A7DF69"/>
<rect x="30" y="84" width="3" height="3" fill="#E34DF3"/>
<rect x="33" y="84" width="3" height="3" fill="#C6EF99"/>
<rect x="36" y="84" width="3" height="3" fill="#C6EF99"/>
<rect x="39" y="84" width="3" height="3" fill="#A7DF69"/>
<rect x="78" y="84" width="3" height="3" fill="#F48FFF"/>
<rect x="81" y="84" width="3" height="3" fill="#D819EC"/>
<rect x="84" y="84" width="3" height="3" fill="#F48FFF"/>
<rect x="87" y="84" width="3" height="3" fill="#A7DF69"/>
<rect x="30" y="87" width="3" height="3" fill="#A9C38D"/>
<rect x="33" y="87" width="3" height="3" fill="#C6EF99"/>
<rect x="36" y="87" width="3" height="3" fill="#A9C38D"/>
<rect x="39" y="87" width="3" height="3" fill="#F8D749"/>
<rect x="42" y="87" width="3" height="3" fill="#A7DF69"/>
<rect x="48" y="87" width="3" height="3" fill="#A7DF69"/>
<rect x="63" y="87" width="3" height="3" fill="#F48FFF"/>
<rect x="72" y="87" width="3" height="3" fill="#A7DF69"/>
<rect x="75" y="87" width="3" height="3" fill="#A9C38D"/>
<rect x="78" y="87" width="3" height="3" fill="#A9C38D"/>
<rect x="81" y="87" width="3" height="3" fill="#F48FFF"/>
<rect x="84" y="87" width="3" height="3" fill="#C6EF99"/>
<rect x="33" y="90" width="3" height="3" fill="#A7DF69"/>
<rect x="36" y="90" width="3" height="3" fill="#F8D749"/>
<rect x="39" y="90" width="3" height="3" fill="#FFEEA4"/>
<rect x="42" y="90" width="3" height="3" fill="#F8D749"/>
<rect x="45" y="90" width="3" height="3" fill="#A7DF69"/>
<rect x="48" y="90" width="3" height="3" fill="#C6EF99"/>
<rect x="51" y="90" width="3" height="3" fill="#E34DF3"/>
<rect x="54" y="90" width="3" height="3" fill="#C6EF99"/>
<rect x="57" y="90" width="3" height="3" fill="#A9C38D"/>
<rect x="60" y="90" width="3" height="3" fill="#A9C38D"/>
<rect x="63" y="90" width="3" height="3" fill="#C6EF99"/>
<rect x="66" y="90" width="3" height="3" fill="#A7DF69"/>
<rect x="69" y="90" width="3" height="3" fill="#FF884E"/>
<rect x="72" y="90" width="3" height="3" fill="#C6EF99"/>
<rect x="75" y="90" width="3" height="3" fill="#C6EF99"/>
<rect x="78" y="90" width="3" height="3" fill="#A9C38D"/>
<rect x="81" y="90" width="3" height="3" fill="#A7DF69"/>
<rect x="30" y="93" width="3" height="3" fill="#A7DF69"/>
<rect x="36" y="93" width="3" height="3" fill="#A9C38D"/>
<rect x="39" y="93" width="3" height="3" fill="#F8D749"/>
<rect x="42" y="93" width="3" height="3" fill="#A7DF69"/>
<rect x="45" y="93" width="3" height="3" fill="#C6EF99"/>
<rect x="48" y="93" width="3" height="3" fill="#A7DF69"/>
<rect x="51" y="93" width="3" height="3" fill="#C6EF99"/>
<rect x="54" y="93" width="3" height="3" fill="#A7DF69"/>
<rect x="57" y="93" width="3" height="3" fill="#E34DF3"/>
<rect x="60" y="93" width="3" height="3" fill="#C6EF99"/>
<rect x="63" y="93" width="3" height="3" fill="#C6EF99"/>
<rect x="66" y="93" width="3" height="3" fill="#FF884E"/>
<rect x="69" y="93" width="3" height="3" fill="#FFB896"/>
<rect x="72" y="93" width="3" height="3" fill="#FF884E"/>
<rect x="75" y="93" width="3" height="3" fill="#A7DF69"/>
<rect x="78" y="93" width="3" height="3" fill="#C6EF99"/>
<rect x="39" y="96" width="3" height="3" fill="#A9C38D"/>
<rect x="45" y="96" width="3" height="3" fill="#C6EF99"/>
<rect x="48" y="96" width="3" height="3" fill="#C6EF99"/>
<rect x="51" y="96" width="3" height="3" fill="#A9C38D"/>
<rect x="54" y="96" width="3" height="3" fill="#E34DF3"/>
<rect x="57" y="96" width="3" height="3" fill="#F48FFF"/>
<rect x="60" y="96" width="3" height="3" fill="#E34DF3"/>
<rect x="63" y="96" width="3" height="3" fill="#A7DF69"/>
<rect x="66" y="96" width="3" height="3" fill="#A9C38D"/>
<rect x="69" y="96" width="3" height="3" fill="#FF884E"/>
<rect x="72" y="96" width="3" height="3" fill="#A7DF69"/>
<rect x="75" y="96" width="3" height="3" fill="#C6EF99"/>
<rect x="81" y="96" width="3" height="3" fill="#F48FFF"/>
<rect x="45" y="99" width="3" height="3" fill="#A9C38D"/>
<rect x="57" y="99" width="3" height="3" fill="#E34DF3"/>
<rect x="60" y="99" width="3" height="3" fill="#A9C38D"/>
<rect x="72" y="99" width="3" height="3" fill="#A9C38D"/>
</g>
<defs>
<clipPath id="clip0_4003_25390">
<rect width="117" height="117" fill="white"/>
</clipPath>
</defs>
</svg>
